<svg width="235" height="60" viewBox="0 0 235 60" fill="none" xmlns="http://www.w3.org/2000/svg">
<g clip-path="url(#clip0_102_17)">
<path d="M15.0185 49V21.7273H22.2273V26.5391H22.5469C23.1151 24.9411 24.062 23.6804 25.3878 22.7571C26.7135 21.8338 28.2997 21.3722 30.1463 21.3722C32.0166 21.3722 33.6087 21.8397 34.9226 22.7749C36.2365 23.6982 37.1125 24.9529 37.5504 26.5391H37.8345C38.3909 24.9766 39.397 23.7277 40.853 22.7926C42.3208 21.8456 44.0549 21.3722 46.0554 21.3722C48.6004 21.3722 50.666 22.183 52.2521 23.8047C53.8501 25.4145 54.6491 27.6991 54.6491 30.6584V49H47.103V32.1499C47.103 30.6347 46.7005 29.4983 45.8956 28.7408C45.0907 27.9832 44.0845 27.6044 42.8771 27.6044C41.504 27.6044 40.4328 28.0424 39.6634 28.9183C38.8939 29.7824 38.5092 30.9247 38.5092 32.3452V49H31.1761V31.9901C31.1761 30.6525 30.7914 29.5871 30.022 28.794C29.2644 28.0009 28.2642 27.6044 27.0213 27.6044C26.1809 27.6044 25.4233 27.8175 24.7486 28.2436C24.0857 28.6579 23.5589 29.2438 23.1683 30.0014C22.7777 30.7472 22.5824 31.6231 22.5824 32.6293V49H15.0185Z" fill="currentColor"/>
<path d="M70.4474 49.5327C67.642 49.5327 65.2273 48.9645 63.2031 47.8281C61.1908 46.6799 59.6402 45.0582 58.5511 42.9631C57.4621 40.8561 56.9176 38.3643 56.9176 35.4879C56.9176 32.6825 57.4621 30.2204 58.5511 28.1016C59.6402 25.9827 61.1731 24.3314 63.1499 23.1477C65.1385 21.964 67.4704 21.3722 70.1456 21.3722C71.9448 21.3722 73.6198 21.6622 75.1705 22.2422C76.733 22.8104 78.0942 23.6686 79.2543 24.8168C80.4261 25.965 81.3376 27.4091 81.9886 29.1491C82.6397 30.8774 82.9652 32.9015 82.9652 35.2216V37.299H59.9361V32.6115H75.8452C75.8452 31.5225 75.6084 30.5578 75.1349 29.7173C74.6615 28.8769 74.0045 28.2199 73.1641 27.7464C72.3355 27.2611 71.3707 27.0185 70.2699 27.0185C69.1217 27.0185 68.1037 27.2848 67.2159 27.8175C66.34 28.3383 65.6534 29.0426 65.1562 29.9304C64.6591 30.8063 64.4046 31.7829 64.3928 32.8601V37.3168C64.3928 38.6662 64.6413 39.8321 65.1385 40.8146C65.6475 41.7971 66.3636 42.5547 67.2869 43.0874C68.2102 43.62 69.3052 43.8864 70.5717 43.8864C71.4122 43.8864 72.1816 43.768 72.88 43.5312C73.5784 43.2945 74.1761 42.9394 74.6733 42.4659C75.1705 41.9924 75.5492 41.4124 75.8097 40.7259L82.8054 41.1875C82.4503 42.8684 81.7223 44.3362 80.6214 45.5909C79.5324 46.8338 78.1238 47.8045 76.3956 48.5028C74.6792 49.1894 72.6965 49.5327 70.4474 49.5327Z" fill="currentColor"/>
<path d="M103.795 49.5149C102.055 49.5149 100.505 49.2131 99.1435 48.6094C97.7822 47.9938 96.705 47.0883 95.9119 45.8928C95.1307 44.6854 94.7401 43.1821 94.7401 41.3828C94.7401 39.8677 95.0182 38.5952 95.5746 37.5653C96.1309 36.5355 96.8885 35.7069 97.8473 35.0795C98.8061 34.4522 99.8951 33.9787 101.114 33.6591C102.345 33.3395 103.636 33.1146 104.985 32.9844C106.571 32.8187 107.85 32.6648 108.82 32.5227C109.791 32.3688 110.495 32.1439 110.933 31.848C111.371 31.5521 111.59 31.1141 111.59 30.5341V30.4276C111.59 29.303 111.235 28.433 110.525 27.8175C109.826 27.2019 108.832 26.8942 107.542 26.8942C106.181 26.8942 105.098 27.196 104.293 27.7997C103.488 28.3916 102.955 29.1373 102.695 30.0369L95.6989 29.4688C96.054 27.8116 96.7524 26.3793 97.794 25.1719C98.8357 23.9527 100.179 23.0175 101.825 22.3665C103.482 21.7036 105.399 21.3722 107.577 21.3722C109.093 21.3722 110.543 21.5497 111.928 21.9048C113.324 22.2599 114.561 22.8104 115.638 23.5561C116.728 24.3018 117.586 25.2607 118.213 26.4325C118.84 27.5926 119.154 28.9834 119.154 30.6051V49H111.981V45.218H111.768C111.33 46.0703 110.744 46.822 110.01 47.473C109.276 48.1122 108.394 48.6153 107.364 48.9822C106.335 49.3374 105.145 49.5149 103.795 49.5149ZM105.962 44.2947C107.074 44.2947 108.057 44.0758 108.909 43.6378C109.761 43.188 110.43 42.5843 110.915 41.8267C111.401 41.0691 111.643 40.2109 111.643 39.2521V36.358C111.407 36.5118 111.081 36.6539 110.667 36.7841C110.264 36.9025 109.809 37.0149 109.3 37.1214C108.791 37.2161 108.282 37.3049 107.773 37.3878C107.264 37.4588 106.802 37.5239 106.388 37.5831C105.5 37.7133 104.725 37.9205 104.062 38.2045C103.399 38.4886 102.884 38.8733 102.517 39.3587C102.15 39.8321 101.967 40.424 101.967 41.1342C101.967 42.1641 102.339 42.9512 103.085 43.4957C103.843 44.0284 104.802 44.2947 105.962 44.2947Z" fill="currentColor"/>
<path d="M122.876 49V44.4901L136.229 27.9595V27.7642H123.338V21.7273H145.337V26.6456L132.802 42.7678V42.9631H145.799V49H122.876Z" fill="currentColor"/>
<path d="M161.447 49.5327C158.642 49.5327 156.227 48.9645 154.203 47.8281C152.191 46.6799 150.64 45.0582 149.551 42.9631C148.462 40.8561 147.918 38.3643 147.918 35.4879C147.918 32.6825 148.462 30.2204 149.551 28.1016C150.64 25.9827 152.173 24.3314 154.15 23.1477C156.138 21.964 158.47 21.3722 161.146 21.3722C162.945 21.3722 164.62 21.6622 166.17 22.2422C167.733 22.8104 169.094 23.6686 170.254 24.8168C171.426 25.965 172.338 27.4091 172.989 29.1491C173.64 30.8774 173.965 32.9015 173.965 35.2216V37.299H150.936V32.6115H166.845C166.845 31.5225 166.608 30.5578 166.135 29.7173C165.661 28.8769 165.004 28.2199 164.164 27.7464C163.335 27.2611 162.371 27.0185 161.27 27.0185C160.122 27.0185 159.104 27.2848 158.216 27.8175C157.34 28.3383 156.653 29.0426 156.156 29.9304C155.659 30.8063 155.405 31.7829 155.393 32.8601V37.3168C155.393 38.6662 155.641 39.8321 156.138 40.8146C156.647 41.7971 157.364 42.5547 158.287 43.0874C159.21 43.62 160.305 43.8864 161.572 43.8864C162.412 43.8864 163.182 43.768 163.88 43.5312C164.578 43.2945 165.176 42.9394 165.673 42.4659C166.17 41.9924 166.549 41.4124 166.81 40.7259L173.805 41.1875C173.45 42.8684 172.722 44.3362 171.621 45.5909C170.532 46.8338 169.124 47.8045 167.396 48.5028C165.679 49.1894 163.696 49.5327 161.447 49.5327Z" fill="currentColor"/>
<path d="M176.018 49V21.7273H183.352V26.4858H183.636C184.133 24.7931 184.967 23.5147 186.139 22.6506C187.311 21.7746 188.661 21.3366 190.188 21.3366C190.566 21.3366 190.975 21.3603 191.413 21.4077C191.851 21.455 192.235 21.5201 192.567 21.603V28.3146C192.212 28.2081 191.72 28.1134 191.093 28.0305C190.466 27.9477 189.892 27.9062 189.371 27.9062C188.258 27.9062 187.264 28.1489 186.388 28.6342C185.524 29.1077 184.837 29.7706 184.328 30.6229C183.831 31.4751 183.582 32.4576 183.582 33.5703V49H176.018Z" fill="currentColor"/>
<path d="M206.341 49.5327C203.583 49.5327 201.198 48.9467 199.185 47.7749C197.185 46.5911 195.64 44.9458 194.551 42.8388C193.462 40.7199 192.918 38.2637 192.918 35.4702C192.918 32.6529 193.462 30.1908 194.551 28.0838C195.64 25.965 197.185 24.3196 199.185 23.1477C201.198 21.964 203.583 21.3722 206.341 21.3722C209.099 21.3722 211.478 21.964 213.479 23.1477C215.491 24.3196 217.042 25.965 218.131 28.0838C219.22 30.1908 219.764 32.6529 219.764 35.4702C219.764 38.2637 219.22 40.7199 218.131 42.8388C217.042 44.9458 215.491 46.5911 213.479 47.7749C211.478 48.9467 209.099 49.5327 206.341 49.5327ZM206.376 43.6733C207.631 43.6733 208.679 43.3182 209.519 42.608C210.36 41.8859 210.993 40.9034 211.419 39.6605C211.857 38.4176 212.076 37.0031 212.076 35.4169C212.076 33.8307 211.857 32.4162 211.419 31.1733C210.993 29.9304 210.36 28.9479 209.519 28.2259C208.679 27.5038 207.631 27.1428 206.376 27.1428C205.11 27.1428 204.045 27.5038 203.18 28.2259C202.328 28.9479 201.683 29.9304 201.245 31.1733C200.819 32.4162 200.606 33.8307 200.606 35.4169C200.606 37.0031 200.819 38.4176 201.245 39.6605C201.683 40.9034 202.328 41.8859 203.18 42.608C204.045 43.3182 205.11 43.6733 206.376 43.6733Z" fill="currentColor"/>
<path d="M85.0185 49V21.7273H92.5824V49H85.0185ZM88.8182 18.2116C87.6937 18.2116 86.7289 17.8388 85.924 17.093C85.1309 16.3355 84.7344 15.4299 84.7344 14.3764C84.7344 13.3348 85.1309 12.4411 85.924 11.6953C86.7289 10.9377 87.6937 10.5589 88.8182 10.5589C89.9427 10.5589 90.9015 10.9377 91.6946 11.6953C92.4995 12.4411 92.902 13.3348 92.902 14.3764C92.902 15.4299 92.4995 16.3355 91.6946 17.093C90.9015 17.8388 89.9427 18.2116 88.8182 18.2116Z" fill="currentColor"/>
</g>
<rect x="0.5" y="0.5" width="234" height="59" stroke="black"/>
<defs>
<clipPath id="clip0_102_17">
<rect width="235" height="60" fill="white"/>
</clipPath>
</defs>
</svg>
